<svg width="512" height="512" fill="none" xmlns="http://www.w3.org/2000/svg"><g clip-path="url(#clip0_29_2)"><mask id="a" style="mask-type:alpha" maskUnits="userSpaceOnUse" x="32" y="60" width="448" height="410"><path d="M183.541 60.556a6.1 6.1 0 012.545-.556h139.827c.878 0 1.745.19 2.546.556l106.914 43.403a6.254 6.254 0 012.685 2.356l40.95 84.923a6.477 6.477 0 01-.438 7.505L260.79 467.504a6.133 6.133 0 01-9.579 0L33.431 198.743a6.476 6.476 0 01-.439-7.505l40.953-85.132a6.269 6.269 0 012.682-2.356L183.54 60.556z" fill="#fff"/></mask><g mask="url(#a)"><path d="M479.99 158.906H32v309.28h447.99v-309.28z" fill="url(#paint0_linear_29_2)"/><path d="M479.99 60H32v117.746h447.99V60z" fill="url(#paint1_linear_29_2)"/><path d="M256.009 141.327l85.538 104.141H171.62l84.389-104.141z" fill="#95B0FF"/><path d="M256.001 529.415l85.546-283.945H171.62l84.381 283.945z" fill="url(#paint2_linear_29_2)"/><path d="M256.011 141.326l-166.3-19.314 81.911 123.457 84.389-104.143z" fill="#D7D6FC"/><path d="M32 193.445l57.702-71.433 81.911 123.457L32 193.445z" fill="#BDB3F9"/><path d="M32 193.445l57.702-71.432-14.04-18.054c-9.561 1.223-26.24 48.123-43.662 89.486z" fill="url(#paint3_linear_29_2)"/><path d="M256.001 141.326l163.412-19.314-77.875 123.457-85.537-104.143z" fill="url(#paint4_linear_29_2)"/><path d="M480 193.447l-60.575-71.433-77.875 123.457L480 193.447z" fill="#A4CCFA"/><path d="M479.997 193.445l-60.575-71.433 15.951-18.053c13.434 8.668 31.353 52.271 44.624 89.486z" fill="url(#paint5_linear_29_2)"/><path d="M142.162 203.648c-.42-1.041 1.154-2.128 1.944-1.341 7.592 7.572 23.069 21.633 34.186 22.609 10.912.959 29.622-9.633 39.408-15.755.963-.602 2.333.946 1.655 1.866-5.852 7.944-15.174 22.357-16.261 34.822-1.167 13.392 6.501 32.263 10.714 41.453.461 1.007-.973 2.096-1.792 1.363-8.177-7.321-25.852-21.985-37.275-22.989-11.512-1.011-30.026 10.678-38.439 16.49-.888.614-2.136-.572-1.589-1.513 4.856-8.352 14.379-26.192 15.534-39.447 1.09-12.501-4.575-28.846-8.085-37.558z" fill="#fff"/></g></g><defs><linearGradient id="paint0_linear_29_2" x1="538.074" y1="234.209" x2="-45.985" y2="227.568" gradientUnits="userSpaceOnUse"><stop offset=".02" stop-color="#5EAAE7"/><stop offset=".452" stop-color="#68A3F1"/><stop offset=".895" stop-color="#9D85FF"/></linearGradient><linearGradient id="paint1_linear_29_2" x1="88.487" y1="118.096" x2="421.402" y2="115.923" gradientUnits="userSpaceOnUse"><stop stop-color="#B69DFD"/><stop offset="1" stop-color="#9AB6FC"/></linearGradient><linearGradient id="paint2_linear_29_2" x1="256.583" y1="245.47" x2="256.58" y2="464.012" gradientUnits="userSpaceOnUse"><stop stop-color="#B3C8FA"/><stop offset="1" stop-color="#A1D2F5"/></linearGradient><linearGradient id="paint3_linear_29_2" x1="70.706" y1="105.572" x2="27.763" y2="182.357" gradientUnits="userSpaceOnUse"><stop stop-color="#AE88FF"/><stop offset="1" stop-color="#BEA1FB"/></linearGradient><linearGradient id="paint4_linear_29_2" x1="337.707" y1="122.012" x2="337.707" y2="245.469" gradientUnits="userSpaceOnUse"><stop stop-color="#7C96FF"/><stop offset="1" stop-color="#5C97FE"/></linearGradient><linearGradient id="paint5_linear_29_2" x1="439.097" y1="116.085" x2="481.766" y2="182.243" gradientUnits="userSpaceOnUse"><stop stop-color="#789EEF"/><stop offset="1" stop-color="#71A3E1"/></linearGradient><clipPath id="clip0_29_2"><path fill="#fff" transform="translate(32 60)" d="M0 0h448v409.806H0z"/></clipPath></defs></svg>